<svg id="Capa_1" enable-background="new 0 0 512 512" height="512" fill="#f39d23" viewBox="0 0 512 512" width="512" xmlns="http://www.w3.org/2000/svg"><g><path d="m443.397 208.569c-7.236-4.043-16.377-1.523-20.449 5.654-4.087 7.207-1.553 16.362 5.654 20.449 33.794 19.146 53.398 42.7 53.398 66.328 0 41.06-56.444 79.863-138.974 96.577-8.13 1.655-13.374 9.565-11.733 17.681 1.669 8.195 9.687 13.379 17.681 11.733 98.422-19.936 163.026-69.389 163.026-125.991 0-34.907-25.009-67.734-68.603-92.431z"/><path d="m181 430.115v50.885c0 5.537 3.047 10.62 7.925 13.228 4.81 2.58 10.745 2.353 15.396-.747l90-60c4.175-2.783 6.68-7.471 6.68-12.48s-2.505-9.697-6.68-12.48l-90-60c-4.614-3.047-10.547-3.369-15.396-.747-4.878 2.606-7.925 7.689-7.925 13.226v38.419c-87.702-15.025-151-54.931-151-98.419 0-23.628 19.604-47.183 53.397-66.328 7.207-4.087 9.741-13.242 5.654-20.449-4.072-7.178-13.198-9.697-20.449-5.654-43.593 24.697-68.602 57.524-68.602 92.431 0 61.108 72.834 112.066 181 129.115z"/><path d="m376 74.228-113.291-56.646c-4.219-2.109-9.199-2.109-13.418 0l-113.296 56.649 120.005 59.997z"/><path d="m391 241v-140.727l-120 60c0 3.08 0 153.08 0 150l111.709-55.854c5.083-2.55 8.291-7.735 8.291-13.419z"/><path d="m121 241c0 5.684 3.208 10.869 8.291 13.418l111.709 55.855c0-10.53 0-153.082 0-150l-120-59.995z"/></g></svg>