<svg height="511pt" viewBox="0 -7 511.99412 511" fill="#f39d23" width="511pt" xmlns="http://www.w3.org/2000/svg"><path d="m256 206.136719c35.347656 0 64-28.65625 64-64 0-35.347657-28.652344-64-64-64s-64 28.652343-64 64c.039062 35.328125 28.671875 63.957031 64 64zm0-109.714844c25.246094 0 45.714844 20.46875 45.714844 45.714844 0 25.246093-20.46875 45.714843-45.714844 45.714843s-45.714844-20.46875-45.714844-45.714843c.03125-25.234375 20.480469-45.683594 45.714844-45.714844zm0 0"/><path d="m283.429688 142.136719c0 15.148437-12.28125 27.429687-27.429688 27.429687s-27.429688-12.28125-27.429688-27.429687c0-15.148438 12.28125-27.429688 27.429688-27.429688s27.429688 12.28125 27.429688 27.429688zm0 0"/><path d="m109.714844 114.707031v54.859375c.015625 5.042969 4.097656 9.125 9.140625 9.140625h33.738281c4.445312 12.730469 11.234375 24.515625 20.023438 34.742188l-16.824219 29.167969c-1.230469 2.09375-1.578125 4.59375-.960938 6.945312.621094 2.351562 2.148438 4.359375 4.253907 5.578125l47.542968 27.429687c2.097656 1.203126 4.585938 1.519532 6.917969.886719 2.332031-.636719 4.316406-2.171875 5.515625-4.269531l16.824219-29.164062c13.296875 2.4375 26.929687 2.4375 40.226562 0l16.824219 29.164062c1.199219 2.097656 3.183594 3.632812 5.515625 4.269531 2.332031.632813 4.820313.316407 6.917969-.886719l47.542968-27.429687c2.105469-1.21875 3.632813-3.226563 4.253907-5.578125.617187-2.351562.269531-4.851562-.960938-6.945312l-16.824219-29.167969c8.789063-10.226563 15.578126-22.011719 20.023438-34.742188h33.738281c5.042969-.015625 9.125-4.097656 9.140625-9.140625v-54.859375c-.015625-5.042969-4.097656-9.128906-9.140625-9.140625h-33.738281c-4.445312-12.734375-11.234375-24.515625-20.023438-34.746094l16.824219-29.164062c1.230469-2.09375 1.578125-4.597656.960938-6.949219-.621094-2.351562-2.148438-4.359375-4.253907-5.578125l-47.542968-27.425781c-2.097656-1.203125-4.585938-1.519531-6.917969-.886719-2.332031.632813-4.316406 2.171875-5.515625 4.269532l-16.824219 29.164062c-13.296875-2.4375-26.929687-2.4375-40.226562 0l-16.824219-29.164062c-1.199219-2.097657-3.183594-3.636719-5.515625-4.269532-2.332031-.632812-4.820313-.316406-6.917969.886719l-47.542968 27.425781c-2.105469 1.21875-3.632813 3.226563-4.253907 5.578125-.617187 2.351563-.269531 4.855469.960938 6.949219l16.824219 29.164062c-8.789063 10.230469-15.578126 22.011719-20.023438 34.746094h-33.738281c-5.042969.011719-9.125 4.097656-9.140625 9.140625zm146.285156-54.855469c45.445312 0 82.285156 36.839844 82.285156 82.285157 0 45.445312-36.839844 82.285156-82.285156 82.285156s-82.285156-36.839844-82.285156-82.285156c.050781-45.425781 36.859375-82.234375 82.285156-82.285157zm0 0"/><path d="m9.144531 288.421875h45.710938c5.050781 0 9.144531 4.09375 9.144531 9.144531v192c0 5.046875-4.09375 9.140625-9.144531 9.140625h-45.710938c-5.050781 0-9.144531-4.09375-9.144531-9.140625v-192c0-5.050781 4.09375-9.144531 9.144531-9.144531zm0 0"/><path d="m82.285156 306.707031v182.859375h222.171875c10.0625 0 19.929688-2.765625 28.527344-7.996094l171.382813-104.320312c3.828124-2.335938 6.492187-6.179688 7.339843-10.582031.847657-4.40625-.203125-8.960938-2.894531-12.550781-.1875-.253907-.363281-.511719-.527344-.78125-4.195312-5.03125-11.0625-6.945313-17.257812-4.8125l-169.242188 56.410156c-4.664062 1.554687-9.546875 2.34375-14.464844 2.34375h-81.265624c-14.445313-.011719-28.5625 4.265625-40.574219 12.289062l-6.695313 4.460938c-2.71875 1.847656-6.21875 2.097656-9.167968.648437-2.949219-1.445312-4.898438-4.367187-5.097657-7.648437-.203125-3.277344 1.371094-6.414063 4.125-8.210938l6.695313-4.464844c15.011718-10.027343 32.660156-15.375 50.714844-15.359374h55.566406c5.8125-7.769532 6.351562-18.28125 1.359375-26.605469l-.820313-1.359375c-6.636718-10.984375-18.523437-17.710938-31.355468-17.75h-47.820313c-21.019531-.027344-41.40625-7.179688-57.835937-20.289063-13.1875-10.519531-29.546876-16.261719-46.417969-16.28125zm0 0"/></svg>